<svg xmlns="http://www.w3.org/2000/svg" viewBox="0 0 64 64" fill="none"><defs><linearGradient id="cast-metal" x1="12" y1="8" x2="45" y2="54" gradientUnits="userSpaceOnUse"><stop stop-color="#c1d5d5"/><stop offset=".32" stop-color="#769d99"/><stop offset="1" stop-color="#355653"/></linearGradient></defs><ellipse cx="34" cy="58" rx="22" ry="3" fill="#000" opacity=".18"/><path d="M12 10H53V43H35V37H47V16H12V22H6V16Q6 10 12 10Z M8 30Q31 30 31 53H24Q24 37 8 37Z M8 42Q19 42 19 53H12Q12 49 8 49Z M7 51H12V56H7Z" transform="translate(2 3)" fill="#102725" stroke="#102725" stroke-width="1.5" stroke-linejoin="round"/><path d="M12 10H53V43H35V37H47V16H12V22H6V16Q6 10 12 10Z M8 30Q31 30 31 53H24Q24 37 8 37Z M8 42Q19 42 19 53H12Q12 49 8 49Z M7 51H12V56H7Z" fill="url(#cast-metal)" stroke="#d2e5dd" stroke-opacity=".65" stroke-width=".8" stroke-linejoin="round"/></svg>
