<svg xmlns="http://www.w3.org/2000/svg" viewBox="0 0 64 64" fill="none"><defs><linearGradient id="desk-metal" x1="12" y1="8" x2="45" y2="54" gradientUnits="userSpaceOnUse"><stop stop-color="#c1d5d5"/><stop offset=".32" stop-color="#769d99"/><stop offset="1" stop-color="#355653"/></linearGradient></defs><ellipse cx="34" cy="58" rx="22" ry="3" fill="#000" opacity=".18"/><path d="M7 29L29 18L55 30L33 42Z M10 33V49L15 52V36 M49 34V49L44 52V37" transform="translate(2 3)" fill="#102725" stroke="#102725" stroke-width="1.5" stroke-linejoin="round"/><path d="M7 29L29 18L55 30L33 42Z M10 33V49L15 52V36 M49 34V49L44 52V37" fill="url(#desk-metal)" stroke="#d2e5dd" stroke-opacity=".65" stroke-width=".8" stroke-linejoin="round"/><path d="M20 27V12L39 8V25L20 30Z" fill="#15282a" stroke="#688d89"/><path d="M24 22L28 18L32 20L36 14" fill="none" stroke="#bce9d4" stroke-width="2"/></svg>
