<svg xmlns="http://www.w3.org/2000/svg" viewBox="0 0 64 64" fill="none"><defs><linearGradient id="room-metal" x1="12" y1="8" x2="45" y2="54" gradientUnits="userSpaceOnUse"><stop stop-color="#c1d5d5"/><stop offset=".32" stop-color="#769d99"/><stop offset="1" stop-color="#355653"/></linearGradient></defs><ellipse cx="34" cy="58" rx="22" ry="3" fill="#000" opacity=".18"/><path d="M6 31L19 24L32 31V48L19 55L6 48Z M30 17L43 10L56 17V34L43 41L30 34Z" transform="translate(2 3)" fill="#102725" stroke="#102725" stroke-width="1.5" stroke-linejoin="round"/><path d="M6 31L19 24L32 31V48L19 55L6 48Z M30 17L43 10L56 17V34L43 41L30 34Z" fill="url(#room-metal)" stroke="#d2e5dd" stroke-opacity=".65" stroke-width=".8" stroke-linejoin="round"/><path d="M6 31L19 38L32 31M19 38V54M30 17L43 24L56 17M43 24V40" fill="none" stroke="#bce9d4" stroke-width="1.5"/></svg>
